Coordinates
version=1
nRows=17
nColumns=40
inDegrees=yes

Units are S.I. units (second, meters, Newtons, ...)
Angles are in degrees.

endheader
time	pelvis_tilt	pelvis_list	pelvis_rotation	pelvis_tx	pelvis_ty	pelvis_tz	hip_flexion_r	hip_adduction_r	hip_rotation_r	knee_angle_r	knee_angle_r_beta	ankle_angle_r	subtalar_angle_r	mtp_angle_r	hip_flexion_l	hip_adduction_l	hip_rotation_l	knee_angle_l	knee_angle_l_beta	ankle_angle_l	subtalar_angle_l	mtp_angle_l	lumbar_extension	lumbar_bending	lumbar_rotation	arm_flex_r	arm_add_r	arm_rot_r	elbow_flex_r	pro_sup_r	wrist_flex_r	wrist_dev_r	arm_flex_l	arm_add_l	arm_rot_l	elbow_flex_l	pro_sup_l	wrist_flex_l	wrist_dev_l
     22.67378571	     -4.70231034	     -4.59437963	      1.35043895	      0.88112455	      0.91594305	      0.50532367	     -1.85625809	      4.13072605	    -16.29536585	     13.67293743	     13.67293743	     18.62806281	     -3.66000721	     -1.56945629	     30.92019354	     -7.77528842	      2.49438317	     24.18307289	     24.18307289	      5.65537315	    -11.21246126	      7.83905048	     -9.46145952	      2.87346316	      3.57825081	     42.42850856	    -14.13658478	     -5.19499713	     94.26531950	     44.25770057	      0.00000000	      0.00000000	    -15.43112305	     -6.18281575	      4.31603882	     29.38440943	     44.37588679	      0.00000000	      0.00000000
     22.69257143	     -4.68475776	     -4.69270580	      1.52759915	      0.88365696	      0.91413134	      0.50182056	     -2.75712317	      4.08161341	    -16.66078586	     13.14980999	     13.14980999	     19.03865572	     -2.94992883	     -1.52031336	     31.28743651	     -7.72322709	      2.28841687	     25.34573323	     25.34573323	      5.35532006	    -11.44837365	      6.34071002	     -9.46449100	      2.89596072	      3.49822590	     43.22659397	    -13.52444767	     -4.61570087	     96.11847862	     44.20875780	      0.00000000	      0.00000000	    -15.29268455	     -6.37852709	      4.00274592	     29.64716319	     44.45949263	      0.00000000	      0.00000000
     22.71135714	     -4.75365427	     -4.67043566	      1.63353388	      0.88628175	      0.91243290	      0.49814837	     -3.30527157	      3.79915630	    -16.93058053	     13.14885234	     13.14885234	     19.45821300	     -2.55558257	     -1.40668452	     31.51546857	     -7.45392264	      2.36260349	     26.43031836	     26.43031836	      4.80970832	    -12.47173111	      4.39470824	     -9.33977158	      2.74069626	      3.89944367	     43.66958526	    -13.35885386	     -4.24442713	     97.54872702	     44.20477892	      0.00000000	      0.00000000	    -14.86777191	     -6.65883969	      3.13265073	     30.20478043	     44.65974363	      0.00000000	      0.00000000
     22.73014286	     -4.82323772	     -4.57868655	      1.68030940	      0.88898256	      0.91119146	      0.49449269	     -3.81623030	      3.45762419	    -16.91027052	     13.17800374	     13.17800374	     19.65199138	     -2.58759055	     -1.41989327	     31.64243076	     -7.14406664	      2.29877781	     27.62205488	     27.62205488	      5.06578517	    -13.15029430	      4.03517553	     -9.16808551	      2.47892808	      4.17725336	     44.08911877	    -12.88997758	     -4.05261829	     97.76561352	     44.19686241	      0.00000000	      0.00000000	    -14.12302595	     -7.07857752	      2.99913459	     30.43679712	     44.69545873	      0.00000000	      0.00000000
     22.74892857	     -4.85294521	     -4.70761955	      1.71064984	      0.89170988	      0.91018194	      0.49078434	     -4.20381484	      3.28514580	    -16.97611247	     13.51267252	     13.51267252	     19.77509618	     -2.54547202	     -1.49413590	     31.76021803	     -6.98844962	      2.54884305	     28.97649336	     28.97649336	      5.47893784	    -14.06508956	      3.66834023	     -9.07891232	      2.51094005	      4.39031672	     44.51045227	    -12.40843461	     -3.82524383	     98.20633394	     44.18434951	      0.00000000	      0.00000000	    -13.42310155	     -7.38540321	      2.74506297	     30.77272158	     44.75204211	      0.00000000	      0.00000000
     22.76771429	     -4.98615434	     -4.68221354	      1.68746122	      0.89437185	      0.90965432	      0.48701216	     -4.34241815	      2.85231125	    -17.22277665	     14.10402482	     14.10402482	     19.79353360	     -2.34972407	     -1.72122387	     31.72425257	     -6.63735604	      2.80169964	     29.95754707	     29.95754707	      6.08957239	    -14.95253624	      4.11035768	     -8.93561409	      2.30615981	      4.61510622	     44.52651965	    -12.11430406	     -3.36280685	     99.05174044	     44.19546865	      0.00000000	      0.00000000	    -12.75598945	     -7.61876613	      0.98887467	     31.97903914	     45.06922087	      0.00000000	      0.00000000
     22.78650000	     -5.03232445	     -4.74854219	      1.63507277	      0.89711414	      0.90975085	      0.48338316	     -4.64649092	      2.59059459	    -17.23098270	     14.49229921	     14.49229921	     19.56410751	     -2.43652349	     -1.71502966	     31.45017293	     -6.46805204	      2.86303221	     30.66767685	     30.66767685	      6.64265616	    -15.35822049	      3.90692126	     -8.83712183	      2.22342821	      4.85228204	     44.57300294	    -11.60928130	     -3.09607859	     99.00719870	     44.19248267	      0.00000000	      0.00000000	    -11.73146747	     -8.04225376	      0.78313447	     32.38266238	     45.11772921	      0.00000000	      0.00000000
     22.80528571	     -5.16831372	     -4.78766797	      1.54542485	      0.89962793	      0.91007168	      0.47971034	     -4.55911792	      2.19529103	    -17.20876581	     15.41132607	     15.41132607	     19.27984608	     -2.70954390	     -1.95728275	     31.17678553	     -6.26240070	      2.88734876	     31.18530940	     31.18530940	      7.36632106	    -15.68064460	      4.11616420	     -8.67348538	      2.13572804	      5.11094710	     44.67868051	    -11.33343274	     -2.76504764	     98.77975862	     44.20222473	      0.00000000	      0.00000000	    -10.77118680	     -8.39137540	      0.19317098	     33.16865704	     45.22519240	      0.00000000	      0.00000000
     22.82407143	     -5.26008644	     -4.90132724	      1.46714064	      0.90215533	      0.91100947	      0.47617668	     -4.71510565	      1.96599735	    -17.26209641	     15.88502052	     15.88502052	     18.76287813	     -2.81148922	     -1.93226033	     30.70413569	     -6.14436944	      2.95092149	     31.36667856	     31.36667856	      7.94715412	    -15.81261694	      4.04133221	     -8.55473355	      2.11801823	      5.25847522	     44.48798057	    -10.86626591	     -2.43331042	     98.60900289	     44.19906832	      0.00000000	      0.00000000	     -9.61959910	     -8.87297724	     -0.04025648	     33.72757154	     45.27698145	      0.00000000	      0.00000000
     22.84285714	     -5.43726445	     -4.86900610	      1.29772973	      0.90430102	      0.91198378	      0.47264854	     -4.46294542	      1.49236418	    -17.07245045	     16.85011833	     16.85011833	     17.60787136	     -3.64091859	     -3.95743007	     30.35969439	     -5.92618487	      2.78514490	     31.64087985	     31.64087985	      9.55181849	    -15.42083866	      6.52283555	     -8.39023259	      1.88508153	      4.71211933	     44.89239090	    -10.34648098	     -1.02614026	     96.96233391	     44.29263245	      0.00000000	      0.00000000	     -9.68709898	     -8.87953053	     -3.81929116	     36.78514601	     45.82649989	      0.00000000	      0.00000000
     22.86164286	     -5.51782041	     -5.02305078	      1.27317345	      0.90662122	      0.91343448	      0.46909250	     -4.54768253	      1.29793944	    -17.20345957	     17.41357305	     17.41357305	     16.92942216	     -3.78115126	     -3.88202086	     29.73694372	     -5.85034957	      2.82410360	     31.44912022	     31.44912022	     10.02612185	    -15.34891003	      6.39492609	     -8.27112633	      1.99365942	      4.79857773	     44.62696922	     -9.99866870	     -0.76422546	     96.70660207	     44.29366987	      0.00000000	      0.00000000	     -8.46385274	     -9.35505203	     -3.97780789	     37.26951404	     45.86558964	      0.00000000	      0.00000000
     22.88042857	     -5.61992923	     -4.89028517	      1.07128676	      0.90859890	      0.91500735	      0.46555681	     -4.27071971	      0.68235698	    -17.05576871	     18.56627539	     18.56627539	     16.19904558	     -4.37525475	     -4.26311408	     28.94947127	     -5.59706039	      2.39293367	     30.93218919	     30.93218919	     10.48907230	    -15.06901750	      6.35404309	     -8.16036633	      1.73280259	      5.16413131	     44.34694208	    -10.27570520	     -0.41185903	     95.55992231	     44.32795216	      0.00000000	      0.00000000	     -7.24186061	     -9.75831740	     -4.41111522	     38.17069759	     45.94225365	      0.00000000	      0.00000000
     22.89921429	     -5.71420496	     -4.91274830	      0.98241247	      0.91055535	      0.91668293	      0.46198440	     -4.16403058	      0.30712991	    -17.03071376	     19.36982058	     19.36982058	     15.28365689	     -4.87517226	     -4.65173207	     28.19927681	     -5.43761388	      2.16630886	     30.41947772	     30.41947772	     10.85806306	    -14.86398030	      6.35509763	     -8.01655995	      1.72360415	      5.26108228	     43.96077945	    -10.37438868	      0.03956379	     94.41983925	     44.35745258	      0.00000000	      0.00000000	     -6.10995002	    -10.17815061	     -4.80588270	     39.11825779	     46.01184161	      0.00000000	      0.00000000
     22.91800000	     -5.79537407	     -4.92645843	      0.90250473	      0.91241732	      0.91838281	      0.45844101	     -4.08403685	     -0.06509832	    -16.98742783	     20.11124620	     20.11124620	     14.22338098	     -5.42395389	     -5.27678397	     27.40216668	     -5.25655692	      1.98821740	     29.82007796	     29.82007796	     11.17538690	    -14.65699454	      6.38590219	     -7.85981144	      1.69715741	      5.28906673	     43.56161179	    -10.56267119	      0.55914442	     92.87829282	     44.39928551	      0.00000000	      0.00000000	     -5.04943290	    -10.60390694	     -5.23184532	     40.21217489	     46.08450346	      0.00000000	      0.00000000
     22.93678571	     -5.85676720	     -4.95067874	      0.83559549	      0.91422135	      0.92010667	      0.45483548	     -4.06616628	     -0.42559367	    -16.99374407	     20.75128977	     20.75128977	     13.07275011	     -5.91453039	     -5.99379332	     26.57401868	     -5.06793985	      1.83379582	     29.18680895	     29.18680895	     11.42594104	    -14.51436604	      6.44545869	     -7.71559278	      1.74863172	      5.22347831	     43.04224384	    -10.71862990	      1.05936390	     91.13203111	     44.44765457	      0.00000000	      0.00000000	     -4.05262724	    -11.00594455	     -5.58733689	     41.26446616	     46.14711173	      0.00000000	      0.00000000
     22.95557143	     -5.90941916	     -4.99115760	      0.77562804	      0.91591535	      0.92173682	      0.45120854	     -4.04997131	     -0.77497988	    -17.01665461	     21.37499196	     21.37499196	     11.71406746	     -6.49183088	     -7.18808846	     25.75765612	     -4.88277707	      1.70644908	     28.56836835	     28.56836835	     11.61991355	    -14.45850396	      6.52788742	     -7.55632905	      1.86864463	      5.06037511	     42.60446456	    -10.85181265	      1.61537749	     88.67647705	     44.52165334	      0.00000000	      0.00000000	     -3.14948767	    -11.41352383	     -5.92204309	     42.42719583	     46.20822034	      0.00000000	      0.00000000
     22.97435714	     -5.93937535	     -5.00287576	      0.70623988	      0.91759350	      0.92334751	      0.44759636	     -4.02404623	     -1.17558299	    -17.02339013	     22.06347747	     22.06347747	     10.42741241	     -6.95816218	     -8.11666610	     24.89119650	     -4.66856736	      1.56766773	     27.90767159	     27.90767159	     11.80881723	    -14.35255391	      6.62118549	     -7.41554867	      1.98831480	      4.89500816	     41.82568015	    -10.91462361	      2.00736946	     86.41415357	     44.59045740	      0.00000000	      0.00000000	     -2.20253372	    -11.81334815	     -6.08685834	     43.32298026	     46.24837132	      0.00000000	      0.00000000
